<svg xmlns="http://www.w3.org/2000/svg" width="20" height="23" viewBox="0 0 20 23" fill="none">
  <path d="M6.55915 2.94677C6.23509 2.94677 5.9243 3.07551 5.69515 3.30466C5.466 3.53381 5.33727 3.8446 5.33727 4.16866C5.33727 4.49273 5.466 4.80352 5.69515 5.03267C5.9243 5.26182 6.23509 5.39055 6.55915 5.39055C6.88322 5.39055 7.19401 5.26182 7.42316 5.03267C7.65231 4.80352 7.78104 4.49273 7.78104 4.16866C7.78104 3.8446 7.65231 3.53381 7.42316 3.30466C7.19401 3.07551 6.88322 2.94677 6.55915 2.94677ZM3.10121 2.94677C3.35365 2.23132 3.8218 1.61178 4.44113 1.17355C5.06046 0.735331 5.80047 0.5 6.55915 0.5C7.31784 0.5 8.05785 0.735331 8.67718 1.17355C9.29651 1.61178 9.76466 2.23132 10.0171 2.94677H18.778C19.1021 2.94677 19.4129 3.07551 19.6421 3.30466C19.8712 3.53381 19.9999 3.8446 19.9999 4.16866C19.9999 4.49273 19.8712 4.80352 19.6421 5.03267C19.4129 5.26182 19.1021 5.39055 18.778 5.39055H10.0171C9.76466 6.10601 9.29651 6.72555 8.67718 7.16377C8.05785 7.60199 7.31784 7.83733 6.55915 7.83733C5.80047 7.83733 5.06046 7.60199 4.44113 7.16377C3.8218 6.72555 3.35365 6.10601 3.10121 5.39055H1.6716C1.34753 5.39055 1.03674 5.26182 0.80759 5.03267C0.578442 4.80352 0.449707 4.49273 0.449707 4.16866C0.449707 3.8446 0.578442 3.53381 0.80759 3.30466C1.03674 3.07551 1.34753 2.94677 1.6716 2.94677H3.10121ZM13.8905 10.2781C13.5664 10.2781 13.2556 10.4068 13.0265 10.636C12.7973 10.8651 12.6686 11.1759 12.6686 11.5C12.6686 11.8241 12.7973 12.1349 13.0265 12.364C13.2556 12.5932 13.5664 12.7219 13.8905 12.7219C14.2146 12.7219 14.5253 12.5932 14.7545 12.364C14.9836 12.1349 15.1124 11.8241 15.1124 11.5C15.1124 11.1759 14.9836 10.8651 14.7545 10.636C14.5253 10.4068 14.2146 10.2781 13.8905 10.2781ZM10.4325 10.2781C10.685 9.56265 11.1531 8.94311 11.7725 8.50489C12.3918 8.06667 13.1318 7.83134 13.8905 7.83134C14.6492 7.83134 15.3892 8.06667 16.0085 8.50489C16.6278 8.94311 17.096 9.56265 17.3484 10.2781H18.778C19.1021 10.2781 19.4129 10.4068 19.6421 10.636C19.8712 10.8651 19.9999 11.1759 19.9999 11.5C19.9999 11.8241 19.8712 12.1349 19.6421 12.364C19.4129 12.5932 19.1021 12.7219 18.778 12.7219H17.3484C17.096 13.4373 16.6278 14.0569 16.0085 14.4951C15.3892 14.9333 14.6492 15.1687 13.8905 15.1687C13.1318 15.1687 12.3918 14.9333 11.7725 14.4951C11.1531 14.0569 10.685 13.4373 10.4325 12.7219H1.6716C1.34753 12.7219 1.03674 12.5932 0.80759 12.364C0.578442 12.1349 0.449707 11.8241 0.449707 11.5C0.449707 11.1759 0.578442 10.8651 0.80759 10.636C1.03674 10.4068 1.34753 10.2781 1.6716 10.2781H10.4325ZM6.55915 17.6094C6.23509 17.6094 5.9243 17.7382 5.69515 17.9673C5.466 18.1965 5.33727 18.5073 5.33727 18.8313C5.33727 19.1554 5.466 19.4662 5.69515 19.6953C5.9243 19.9245 6.23509 20.0532 6.55915 20.0532C6.88322 20.0532 7.19401 19.9245 7.42316 19.6953C7.65231 19.4662 7.78104 19.1554 7.78104 18.8313C7.78104 18.5073 7.65231 18.1965 7.42316 17.9673C7.19401 17.7382 6.88322 17.6094 6.55915 17.6094ZM3.10121 17.6094C3.35365 16.894 3.8218 16.2745 4.44113 15.8362C5.06046 15.398 5.80047 15.1627 6.55915 15.1627C7.31784 15.1627 8.05785 15.398 8.67718 15.8362C9.29651 16.2745 9.76466 16.894 10.0171 17.6094H18.778C19.1021 17.6094 19.4129 17.7382 19.6421 17.9673C19.8712 18.1965 19.9999 18.5073 19.9999 18.8313C19.9999 19.1554 19.8712 19.4662 19.6421 19.6953C19.4129 19.9245 19.1021 20.0532 18.778 20.0532H10.0171C9.76466 20.7687 9.29651 21.3882 8.67718 21.8264C8.05785 22.2647 7.31784 22.5 6.55915 22.5C5.80047 22.5 5.06046 22.2647 4.44113 21.8264C3.8218 21.3882 3.35365 20.7687 3.10121 20.0532H1.6716C1.34753 20.0532 1.03674 19.9245 0.80759 19.6953C0.578442 19.4662 0.449707 19.1554 0.449707 18.8313C0.449707 18.5073 0.578442 18.1965 0.80759 17.9673C1.03674 17.7382 1.34753 17.6094 1.6716 17.6094H3.10121Z" fill="#4D4352"/>
</svg>