<svg xmlns="http://www.w3.org/2000/svg" width="17" height="19" viewBox="0 0 17 19" fill="none">
<path d="M16.2195 6.20976C15.2463 1.9278 11.5112 0 8.23025 0C8.23025 0 8.23025 0 8.22098 0C4.94925 0 1.20486 1.91854 0.231687 6.20049C-0.852703 10.9829 2.07608 15.0332 4.72681 17.582C5.70925 18.5273 6.96976 19 8.23025 19C9.49074 19 10.7512 18.5273 11.7244 17.582C14.3751 15.0332 17.3039 10.9922 16.2195 6.20976ZM8.23025 10.8532C6.61757 10.8532 5.31071 9.54634 5.31071 7.93366C5.31071 6.32098 6.61757 5.01415 8.23025 5.01415C9.84293 5.01415 11.1498 6.32098 11.1498 7.93366C11.1498 9.54634 9.84293 10.8532 8.23025 10.8532Z" fill="#4D4352" fill-opacity="0.5"/>
</svg>