<svg xmlns="http://www.w3.org/2000/svg" width="196" height="170" viewBox="0 0 196 170" fill="none">
  <g filter="url(#filter0_d_88_9655)">
    <path fill-rule="evenodd" clip-rule="evenodd" d="M123 35H48C44.6848 35 41.5054 36.317 39.1612 38.6612C36.817 41.0054 35.5 44.1848 35.5 47.5V122.5C35.5 125.815 36.817 128.995 39.1612 131.339C41.5054 133.683 44.6848 135 48 135H123C123 133.342 123.658 131.753 124.831 130.581C126.003 129.408 127.592 128.75 129.25 128.75C130.908 128.75 132.497 129.408 133.669 130.581C134.842 131.753 135.5 133.342 135.5 135H148C151.315 135 154.495 133.683 156.839 131.339C159.183 128.995 160.5 125.815 160.5 122.5V47.5C160.5 44.1848 159.183 41.0054 156.839 38.6612C154.495 36.317 151.315 35 148 35H135.5C135.5 36.6576 134.842 38.2473 133.669 39.4194C132.497 40.5915 130.908 41.25 129.25 41.25C127.592 41.25 126.003 40.5915 124.831 39.4194C123.658 38.2473 123 36.6576 123 35ZM129.25 66.2563C130.908 66.2563 132.497 65.5978 133.669 64.4257C134.842 63.2536 135.5 61.6639 135.5 60.0063V60C135.5 58.3424 134.842 56.7527 133.669 55.5806C132.497 54.4085 130.908 53.75 129.25 53.75C127.592 53.75 126.003 54.4085 124.831 55.5806C123.658 56.7527 123 58.3424 123 60V60.0063C123 61.6639 123.658 63.2536 124.831 64.4257C126.003 65.5978 127.592 66.2563 129.25 66.2563ZM135.5 85.0063C135.5 86.6639 134.842 88.2536 133.669 89.4257C132.497 90.5978 130.908 91.2563 129.25 91.2563C127.592 91.2563 126.003 90.5978 124.831 89.4257C123.658 88.2536 123 86.6639 123 85.0063V85C123 83.3424 123.658 81.7527 124.831 80.5806C126.003 79.4085 127.592 78.75 129.25 78.75C130.908 78.75 132.497 79.4085 133.669 80.5806C134.842 81.7527 135.5 83.3424 135.5 85V85.0063ZM129.25 116.256C130.908 116.256 132.497 115.598 133.669 114.426C134.842 113.254 135.5 111.664 135.5 110.006C135.5 108.349 134.842 106.753 133.669 105.581C132.497 104.408 130.908 103.75 129.25 103.75C127.592 103.75 126.003 104.408 124.831 105.581C123.658 106.753 123 108.342 123 110C123 111.658 123.658 113.254 124.831 114.426C126.003 115.598 127.592 116.256 129.25 116.256ZM109.45 69.7188C110.37 68.3396 110.704 66.6515 110.38 65.0258C110.055 63.4001 109.098 61.97 107.719 61.05C106.34 60.13 104.652 59.7956 103.026 60.1203C101.4 60.4449 99.97 61.4021 99.05 62.7812L78.2812 93.9375L71.1687 86.8313C69.99 85.6928 68.4112 85.0628 66.7725 85.077C65.1338 85.0913 63.5662 85.7486 62.4074 86.9074C61.2486 88.0662 60.5913 89.6338 60.577 91.2725C60.5628 92.9112 61.1928 94.49 62.3313 95.6687L74.8313 108.169C75.485 108.824 76.276 109.325 77.1471 109.637C78.0183 109.949 78.9479 110.064 79.8687 109.973C80.7896 109.882 81.6789 109.588 82.4722 109.112C83.2655 108.635 83.9432 107.989 84.4563 107.219L109.456 69.7188H109.45Z" fill="#C870FF"/>
  </g>
  <defs>
    <filter id="filter0_d_88_9655" x="0.5" y="0" width="195" height="170" filterUnits="userSpaceOnUse" color-interpolation-filters="sRGB">
      <feFlood flood-opacity="0" result="BackgroundImageFix"/>
      <feColorMatrix in="SourceAlpha" type="matrix" values="0 0 0 0 0 0 0 0 0 0 0 0 0 0 0 0 0 0 127 0" result="hardAlpha"/>
      <feOffset/>
      <feGaussianBlur stdDeviation="17.5"/>
      <feComposite in2="hardAlpha" operator="out"/>
      <feColorMatrix type="matrix" values="0 0 0 0 0.784314 0 0 0 0 0.439216 0 0 0 0 1 0 0 0 0.35 0"/>
      <feBlend mode="normal" in2="BackgroundImageFix" result="effect1_dropShadow_88_9655"/>
      <feBlend mode="normal" in="SourceGraphic" in2="effect1_dropShadow_88_9655" result="shape"/>
    </filter>
  </defs>
</svg>